<?xml version="1.0" encoding="UTF-8" standalone="no"?>
<svg
   xmlns:dc="http://purl.org/dc/elements/1.1/"
   xmlns:cc="http://creativecommons.org/ns#"
   xmlns:rdf="http://www.w3.org/1999/02/22-rdf-syntax-ns#"
   xmlns:svg="http://www.w3.org/2000/svg"
   xmlns="http://www.w3.org/2000/svg"
   xml:space="preserve"
   width="56.693px"
   viewBox="-1163 1657.697 56.693 56.693"
   version="1.1"
   id="Layer_1"
   height="56.693px"
   enable-background="new -1163 1657.697 56.693 56.693"><metadata
     id="metadata4255"><rdf:RDF><cc:Work
         rdf:about=""><dc:format>image/svg+xml</dc:format><dc:type
           rdf:resource="http://purl.org/dc/dcmitype/StillImage" /><dc:title></dc:title></cc:Work></rdf:RDF></metadata><defs
     id="defs4253" /><path
     id="path4258"
     style="clip-rule:evenodd;fill:#ffffff;fill-rule:evenodd"
     d="m -1120.8154,1699.132 0,-9.596 c 0,-5.1414 -2.7447,-7.5339 -6.4038,-7.5339 -2.953,0 -4.2761,1.6247 -5.0135,2.7645 l 0,-2.3712 -5.5634,0 c 0.073,1.5707 0,16.7366 0,16.7366 l 5.5634,0 0,-9.347 c 0,-0.4989 0.035,-0.9988 0.1835,-1.356 0.4014,-0.9996 1.3166,-2.0344 2.8529,-2.0344 2.014,0 2.8185,1.5346 2.8185,3.7837 l 0,8.9545 5.5624,0 z m -22.8415,-19.0209 c 1.9395,0 3.148,-1.2864 3.148,-2.8932 -0.035,-1.641 -1.2085,-2.8905 -3.1111,-2.8905 -1.9025,0 -3.1471,1.2486 -3.1471,2.8905 0,1.6068 1.2077,2.8932 3.075,2.8932 l 0.035,0 z m 9.0464,32.0181 c -13.5748,0 -24.5802,-11.0054 -24.5802,-24.5801 0,-13.5757 11.0054,-24.5803 24.5802,-24.5803 13.5748,0 24.5802,11.0046 24.5802,24.5803 0,13.5747 -11.0054,24.5801 -24.5802,24.5801 z m -6.2647,-12.9972 0,-16.7366 -5.5625,0 0,16.7366 5.5625,0 z" /></svg>